<svg width="16" height="16" viewBox="0 0 16 16" fill="none" xmlns="http://www.w3.org/2000/svg">
<path d="M1.66616e-06 1.50004C-0.000526081 1.1458 0.124332 0.802806 0.352463 0.531805C0.580593 0.260803 0.897273 0.0792835 1.24641 0.0193966C1.59555 -0.0404902 1.95462 0.0251201 2.26002 0.204607C2.56543 0.384094 2.79745 0.665875 2.915 1.00004H14.5C14.8545 0.999548 15.1977 1.12461 15.4688 1.35306C15.7398 1.58151 15.9212 1.89857 15.9808 2.24801C16.0403 2.59746 15.9742 2.95671 15.7941 3.26205C15.614 3.56739 15.3316 3.79908 14.997 3.91604L15 4.00004V11C15 11.7957 14.6839 12.5588 14.1213 13.1214C13.5587 13.684 12.7957 14 12 14H5C4.26206 14 3.55001 13.728 3 13.236V15.25C3 15.449 2.92098 15.6397 2.78033 15.7804C2.63968 15.921 2.44891 16 2.25 16H0.750002C0.551089 16 0.360324 15.921 0.219671 15.7804C0.0790192 15.6397 1.66616e-06 15.449 1.66616e-06 15.25V1.50004ZM14 11V4.00004H3V11C3 11.5305 3.21072 12.0392 3.58579 12.4143C3.96086 12.7893 4.46957 13 5 13H12C12.5304 13 13.0391 12.7893 13.4142 12.4143C13.7893 12.0392 14 11.5305 14 11ZM2 3.00004H14.5C14.6326 3.00004 14.7598 2.94736 14.8536 2.85359C14.9473 2.75983 15 2.63265 15 2.50004C15 2.36743 14.9473 2.24026 14.8536 2.14649C14.7598 2.05272 14.6326 2.00004 14.5 2.00004H2V1.50004C2 1.36743 1.94732 1.24026 1.85355 1.14649C1.75979 1.05272 1.63261 1.00004 1.5 1.00004C1.36739 1.00004 1.24022 1.05272 1.14645 1.14649C1.05268 1.24026 1 1.36743 1 1.50004V15H2V3.00004ZM5.5 7.95504V10.505C5.5 10.6376 5.55268 10.7648 5.64645 10.8586C5.74022 10.9524 5.86739 11.005 6 11.005H7C7.13261 11.005 7.25979 10.9524 7.35356 10.8586C7.44732 10.7648 7.5 10.6376 7.5 10.505V9.50504C7.5 9.37243 7.55268 9.24526 7.64645 9.15149C7.74022 9.05772 7.86739 9.00504 8 9.00504H9C9.13261 9.00504 9.25979 9.05772 9.35356 9.15149C9.44732 9.24526 9.5 9.37243 9.5 9.50504V10.505C9.5 10.6376 9.55268 10.7648 9.64645 10.8586C9.74022 10.9524 9.86739 11.005 10 11.005H11C11.1326 11.005 11.2598 10.9524 11.3536 10.8586C11.4473 10.7648 11.5 10.6376 11.5 10.505V7.95504C11.5 7.8137 11.4701 7.67395 11.4122 7.54502C11.3543 7.41608 11.2697 7.30089 11.164 7.20704L8.832 5.13704C8.7405 5.05578 8.62238 5.01091 8.5 5.01091C8.37763 5.01091 8.2595 5.05578 8.168 5.13704L5.836 7.20704C5.73031 7.30089 5.64572 7.41608 5.58781 7.54502C5.52989 7.67395 5.49996 7.8137 5.5 7.95504Z" fill="white"/>
</svg>
