<svg width="22" height="22" viewBox="0 0 22 22" fill="none" xmlns="http://www.w3.org/2000/svg">
<path d="M20 21V6.48497C20 5.38697 20 4.83897 19.684 4.37497C19.369 3.91197 18.788 3.60797 17.625 2.99897L16.145 2.22497C14.321 1.26897 13.408 0.790969 12.705 1.08697C12 1.38297 12 2.24497 12 3.96697V7.99997M21 21H1M20 6.99997H18M20 9.99997H18M20 13H18" stroke="white" stroke-width="1.5" stroke-linecap="round" stroke-linejoin="round"/>
<path d="M10.5 12H11.5M10.5 15H11.5M7 12C7 10.114 7 9.172 7.586 8.586C8.172 8 9.114 8 11 8C12.886 8 13.828 8 14.414 8.586C15 9.172 15 10.114 15 12V21H7V12Z" stroke="white" stroke-width="1.5" stroke-linecap="round" stroke-linejoin="round"/>
<path d="M2.5 15C3.32843 15 4 14.1046 4 13C4 11.8954 3.32843 11 2.5 11C1.67157 11 1 11.8954 1 13C1 14.1046 1.67157 15 2.5 15Z" stroke="white" stroke-width="1.5" stroke-linecap="round" stroke-linejoin="round"/>
<path d="M2.5 15V21" stroke="white" stroke-width="1.5" stroke-linecap="round" stroke-linejoin="round"/>
</svg>
