<svg width="21" height="21" viewBox="0 0 21 21" fill="none" xmlns="http://www.w3.org/2000/svg">
<path d="M6 19.025V10H7.6C7.71667 10 7.83333 10.0127 7.95 10.038C8.06667 10.0633 8.18333 10.0923 8.3 10.125L15.225 12.7C15.4583 12.7833 15.646 12.9333 15.788 13.15C15.93 13.3667 16.0007 13.5917 16 13.825C16 14.175 15.879 14.4583 15.637 14.675C15.395 14.8917 15.116 15 14.8 15H12.175C12.0917 15 12.0293 14.996 11.988 14.988C11.9467 14.98 11.8923 14.959 11.825 14.925L10.225 14.3L9.9 15.275L11.825 15.95C11.8583 15.9667 11.9083 15.9793 11.975 15.988C12.0417 15.9967 12.1 16.0007 12.15 16H19C19.5333 16 20 16.1917 20.4 16.575C20.8 16.9583 21 17.4333 21 18L13.025 21L6 19.025ZM0 21V10H4V21H0ZM13.5 7H14.5V6H13.5V7ZM11.5 7H12.5V6H11.5V7ZM13.5 9H14.5V8H13.5V9ZM11.5 9H12.5V8H11.5V9ZM17.525 13C17.2917 12.45 16.9583 11.9667 16.525 11.55C16.0917 11.1333 15.5583 10.8083 14.925 10.575L8 8H6V5.5L13 0.5L20 5.5V13H17.525Z" fill="white"/>
</svg>
